<?xml version="1.0" standalone="no"?>
<!DOCTYPE svg PUBLIC "-//W3C//DTD SVG 20010904//EN"
 "http://www.w3.org/TR/2001/REC-SVG-20010904/DTD/svg10.dtd">
<svg version="1.0" xmlns="http://www.w3.org/2000/svg"
 width="64.000000pt" height="64.000000pt" viewBox="0 0 64.000000 64.000000"
 preserveAspectRatio="xMidYMid meet">
<metadata>
Created by potrace 1.16, written by Peter Selinger 2001-2019
</metadata>
<g transform="translate(0.000000,64.000000) scale(0.100000,-0.100000)"
fill="#000000" stroke="none">
<path d="M140 552 c-70 -45 -140 -112 -140 -132 0 -22 71 -188 101 -237 28
-46 78 -73 132 -73 31 0 47 -5 51 -15 7 -20 65 -20 72 0 4 10 20 15 46 15 51
0 103 25 129 61 27 38 109 225 109 248 0 22 -83 99 -147 138 -37 21 -51 24
-100 19 -70 -7 -73 -7 -148 0 -54 5 -64 2 -105 -24z m180 -13 c14 0 44 3 66 7
51 7 89 -9 158 -68 45 -39 48 -43 27 -48 -12 -3 -73 -1 -136 4 -69 5 -161 5
-230 0 -63 -5 -124 -7 -137 -4 -20 5 -18 9 25 45 75 63 105 77 157 70 25 -3
56 -6 70 -6z m134 -135 l94 -7 -60 -51 c-88 -75 -104 -84 -128 -68 -25 15 -55
15 -80 0 -24 -16 -40 -7 -130 70 l-61 52 53 1 c29 1 78 5 108 9 30 4 68 6 83
4 15 -2 70 -7 121 -10z m-299 -104 c46 -43 75 -60 104 -60 19 0 21 -6 21 -55
l0 -55 -42 6 c-75 11 -105 45 -174 200 l-25 57 38 -28 c21 -15 56 -45 78 -65z
m420 34 c-67 -153 -98 -187 -172 -198 l-43 -6 0 55 c0 49 2 55 21 55 29 0 58
17 104 60 36 33 106 90 112 90 2 0 -8 -25 -22 -56z"/>
</g>
</svg>
