<?xml version="1.0" encoding="UTF-8"?>
<svg xmlns="http://www.w3.org/2000/svg" xmlns:xlink="http://www.w3.org/1999/xlink" width="56pt" height="56pt" viewBox="0 0 56 56" version="1.1">
<g id="surface1">
<path style=" stroke:none;fill-rule:nonzero;fill:rgb(0%,0%,0%);fill-opacity:1;" d="M 52.5 14 L 38.5 14 L 38.5 10.5 C 38.5 8.574219 36.925781 7 35 7 L 21 7 C 19.074219 7 17.5 8.574219 17.5 10.5 L 17.5 14 L 3.5 14 C 1.574219 14 0 15.574219 0 17.5 L 0 49 C 0 50.925781 1.574219 52.5 3.5 52.5 L 52.5 52.5 C 54.425781 52.5 56 50.925781 56 49 L 56 17.5 C 56 15.574219 54.425781 14 52.5 14 Z M 21 10.507812 C 21 10.503906 21.003906 10.5 21.007812 10.5 L 34.992188 10.5 C 34.996094 10.5 35 10.503906 35 10.507812 L 35 14 L 21 14 Z M 52.5 28 L 45.5 28 L 45.5 33.25 C 45.5 34.210938 44.710938 35 43.75 35 L 40.25 35 C 39.289062 35 38.5 34.210938 38.5 33.25 L 38.5 28 L 17.5 28 L 17.5 33.25 C 17.5 34.210938 16.710938 35 15.75 35 L 12.25 35 C 11.289062 35 10.5 34.210938 10.5 33.25 L 10.5 28 L 3.5 28 L 3.5 24.5 L 52.5 24.5 Z M 52.5 28 "/>
</g>
</svg>
