<?xml version="1.0" encoding="UTF-8"?>
<svg xmlns="http://www.w3.org/2000/svg" xmlns:xlink="http://www.w3.org/1999/xlink" width="56pt" height="56pt" viewBox="0 0 56 56" version="1.1">
<g id="surface1">
<path style=" stroke:none;fill-rule:nonzero;fill:rgb(0%,0%,0%);fill-opacity:1;" d="M 21 50.75 C 21 53.648438 18.648438 56 15.75 56 C 12.851562 56 10.5 53.648438 10.5 50.75 C 10.5 47.851562 12.851562 45.5 15.75 45.5 C 18.648438 45.5 21 47.851562 21 50.75 Z M 21 50.75 "/>
<path style=" stroke:none;fill-rule:nonzero;fill:rgb(0%,0%,0%);fill-opacity:1;" d="M 56 50.75 C 56 53.648438 53.648438 56 50.75 56 C 47.851562 56 45.5 53.648438 45.5 50.75 C 45.5 47.851562 47.851562 45.5 50.75 45.5 C 53.648438 45.5 56 47.851562 56 50.75 Z M 56 50.75 "/>
<path style=" stroke:none;fill-rule:nonzero;fill:rgb(0%,0%,0%);fill-opacity:1;" d="M 56 28 L 56 7 L 14 7 C 14 5.066406 12.433594 3.5 10.5 3.5 L 0 3.5 L 0 7 L 7 7 L 9.628906 29.535156 C 8.027344 30.816406 7 32.789062 7 35 C 7 38.867188 10.132812 42 14 42 L 56 42 L 56 38.5 L 14 38.5 C 12.066406 38.5 10.5 36.933594 10.5 35 C 10.5 34.988281 10.5 34.976562 10.5 34.964844 Z M 56 28 "/>
</g>
</svg>
