<?xml version="1.0" encoding="UTF-8"?>
<svg xmlns="http://www.w3.org/2000/svg" xmlns:xlink="http://www.w3.org/1999/xlink" width="56pt" height="56pt" viewBox="0 0 56 56" version="1.1">
<g id="surface1">
<path style=" stroke:none;fill-rule:nonzero;fill:rgb(0%,0%,0%);fill-opacity:1;" d="M 42.191406 17.5 C 43.183594 16.796875 44.132812 16.011719 45.003906 15.140625 C 46.832031 13.3125 48.054688 11.066406 48.445312 8.8125 C 48.875 6.339844 48.246094 4.046875 46.714844 2.515625 C 45.496094 1.296875 43.84375 0.652344 41.9375 0.652344 C 39.222656 0.652344 36.363281 1.957031 34.09375 4.226562 C 30.457031 7.863281 28.339844 12.882812 27.199219 16.460938 C 26.355469 12.863281 24.671875 8.003906 21.402344 4.734375 C 19.644531 2.980469 17.402344 2.078125 15.285156 2.078125 C 13.554688 2.078125 11.90625 2.679688 10.675781 3.910156 C 7.941406 6.644531 8.3125 11.445312 11.5 14.632812 C 12.636719 15.769531 13.96875 16.714844 15.367188 17.5 L 3.5 17.5 L 3.5 31.5 L 7 31.5 L 7 56 L 49 56 L 49 31.5 L 52.5 31.5 L 52.5 17.5 Z M 36.878906 7.011719 C 38.394531 5.496094 40.285156 4.589844 41.9375 4.589844 C 42.523438 4.589844 43.34375 4.714844 43.933594 5.300781 C 45.355469 6.726562 44.554688 10.023438 42.222656 12.355469 C 39.816406 14.757812 36.585938 16.414062 33.777344 17.5 L 31.003906 17.5 C 32.019531 14.351562 33.851562 10.039062 36.878906 7.011719 Z M 12.792969 8.796875 C 12.753906 8.300781 12.789062 7.363281 13.460938 6.695312 C 14.019531 6.132812 14.761719 6.015625 15.285156 6.015625 C 16.445312 6.015625 17.660156 6.5625 18.617188 7.519531 C 20.46875 9.371094 21.992188 12.320312 23.027344 16.042969 C 23.054688 16.144531 23.082031 16.242188 23.109375 16.34375 C 23.011719 16.316406 22.910156 16.289062 22.808594 16.261719 C 19.085938 15.226562 16.136719 13.703125 14.285156 11.847656 C 13.417969 10.984375 12.875 9.871094 12.792969 8.796875 Z M 24.5 52.5 L 10.5 52.5 L 10.5 29.75 L 24.5 29.75 Z M 24.5 28 L 7 28 L 7 21 L 24.5 21 Z M 45.5 52.5 L 31.5 52.5 L 31.5 29.75 L 45.5 29.75 Z M 49 28 L 31.5 28 L 31.5 21 L 49 21 Z M 49 28 "/>
</g>
</svg>
